<svg width="100" height="100" viewBox="0 0 100 100" fill="none" xmlns="http://www.w3.org/2000/svg">
<g clip-path="url(#clip0_704_13760)">
<path d="M30.4488 39.1346C28.4654 38.9276 26.1028 39.0725 25.9185 39.0828C24.4229 39.1759 23.1982 39.1449 20.7488 39.1035C19.5133 39.0725 18.2778 39.1242 17.0422 39.0932C16.8146 39.0932 16.3486 39.0828 15.7417 39.1449C14.7879 39.2484 14.0943 39.476 13.8776 39.5484C13.4332 39.6933 12.512 40.014 11.5474 40.7589C10.7887 41.3383 10.3552 41.9177 10.2468 42.0729C9.6074 42.9524 9.36896 43.749 9.24974 44.1629C8.94628 45.2493 8.98963 46.1391 9.02215 46.5943C9.05466 47.0909 9.11969 47.9704 9.56405 49.005C10.171 50.4121 11.103 51.2502 11.4065 51.5088C11.6016 51.6744 12.3602 52.2952 13.5524 52.7504C14.7879 53.216 15.8501 53.2677 16.457 53.2884C20.001 53.4126 23.8268 53.3298 24.6938 53.3091C25.3224 53.3091 25.9619 53.3194 26.5905 53.3194C26.688 53.3194 26.8398 53.3194 27.0132 53.3401C27.2408 53.3712 27.4358 53.3919 27.6309 53.5264C27.6851 53.5574 27.826 53.6609 27.9344 53.8471C28.0319 54.023 28.0211 54.1885 28.0211 54.4679C28.0103 54.6541 28.0103 54.7576 27.9561 54.9024C27.9236 54.9749 27.8585 55.1404 27.696 55.2853C27.5659 55.3991 27.4358 55.4301 27.2841 55.4818C27.1649 55.5232 26.9915 55.5646 26.7747 55.5646C22.1469 55.5543 17.5299 55.5543 12.9021 55.5543C12.8046 55.5543 12.6854 55.5543 12.5336 55.5646C12.111 55.5957 11.8075 55.6784 11.7208 55.6991C11.3415 55.8026 11.0814 55.9474 10.9947 55.9888C10.9188 56.0302 10.637 56.1957 10.3227 56.4854C10.1818 56.6199 9.95421 56.8269 9.74829 57.1683C9.6941 57.2511 9.4665 57.6442 9.36896 58.2029C9.33645 58.3581 9.27142 58.8341 9.40148 59.4238C9.54237 60.0549 9.83499 60.4791 9.9217 60.6033C10.3877 61.2448 10.973 61.5448 11.1572 61.6379C11.7533 61.9173 12.2952 61.9587 12.5987 61.969C17.324 61.969 22.0494 61.969 26.7747 61.969C26.9048 61.969 27.0999 61.969 27.3275 61.9587C28.498 61.8966 29.365 61.6276 29.5601 61.5655C30.037 61.4207 30.9907 61.1103 31.9769 60.3239C32.2696 60.086 33.0607 59.4135 33.6893 58.2961C34.3505 57.1062 34.448 56.0405 34.513 55.337C34.6539 53.7954 34.3396 52.6262 34.2638 52.3779C34.0578 51.6433 33.7544 50.5673 32.7898 49.5844C32.0745 48.8602 31.305 48.498 30.8281 48.2808C29.8635 47.8359 29.0399 47.691 28.4655 47.5979C27.5767 47.453 26.8181 47.4324 26.2653 47.453C23.1982 47.453 20.1419 47.4427 17.0748 47.4427C16.988 47.453 16.9013 47.453 16.793 47.453C16.6737 47.453 16.5437 47.4427 16.4028 47.4013C16.3269 47.3806 16.121 47.3185 15.991 47.1427C15.8826 47.0082 15.8717 46.8633 15.8501 46.584C15.8392 46.4184 15.8284 46.2632 15.8826 46.077C15.9151 45.9528 15.9584 45.8494 16.056 45.7459C16.186 45.6217 16.3594 45.5907 16.587 45.5493C16.6846 45.5286 16.7713 45.5183 16.9013 45.5183C17.2373 45.5183 22.6671 45.5183 30.102 45.5286C30.167 45.5286 30.2537 45.5286 30.3513 45.5183C30.4488 45.5079 30.7523 45.4872 31.0774 45.3941C31.5543 45.2596 31.9228 45.032 32.107 44.8975C32.6597 44.5043 32.9524 44.0594 33.0607 43.8835C33.2667 43.5421 33.4943 43.0145 33.5051 42.3419C33.5051 42.1247 33.4943 41.4004 33.0174 40.6555C32.6489 40.0761 32.1937 39.7657 32.0528 39.6726C31.4025 39.238 30.7523 39.1656 30.4488 39.1346Z" fill="#00806F"/>
<path d="M59.4954 39.0844C58.8777 39.0637 52.5917 38.9086 49.492 39.0844C49.0151 39.1155 48.3432 39.1672 47.4978 39.3328C45.8504 39.6638 44.6908 40.2019 44.4632 40.3157C42.7074 41.1641 41.6236 42.2504 41.2768 42.6126C39.5861 44.3818 39.0334 46.2545 38.7841 47.1132C38.589 47.8064 37.8845 50.5172 38.8925 53.8177C39.2068 54.842 39.9112 57.0354 42.0138 58.9702C44.9401 61.6602 48.5274 61.9499 49.6329 62.0017C52.7976 62.0017 55.9514 62.0017 59.1161 62.0017C59.257 61.9913 59.4629 61.981 59.7122 61.9499C60.2758 61.8775 60.8177 61.8051 61.3379 61.505C62.0749 61.0912 62.4109 60.429 62.5626 60.129C62.671 59.9117 62.8661 59.5082 62.9202 58.9598C63.0286 57.6458 62.1291 56.694 62.0207 56.5802C61.067 55.5973 59.8097 55.5455 59.5822 55.5455C54.1198 55.5455 51.6054 55.5662 50.8576 55.5973C50.7709 55.5973 50.4241 55.618 49.958 55.5973C49.7738 55.5869 48.9826 55.5559 48.3865 55.3903C47.3244 55.1006 46.6525 54.335 46.349 53.9936C45.2327 52.7106 45.1243 51.2621 45.1026 50.7862C45.081 50.3413 45.0268 49.1515 45.7529 47.8892C45.9588 47.5271 46.4032 46.7821 47.3244 46.2028C48.2998 45.5923 49.2752 45.5095 49.7088 45.5095C55.5829 45.4061 58.0757 45.4268 58.8127 45.5095C58.8994 45.5199 59.2678 45.5613 59.7556 45.5095C60.0157 45.4785 60.6551 45.4061 61.2945 45.044C62.3242 44.4542 62.6818 43.5023 62.736 43.3368C62.8335 43.0781 63.1045 42.1987 62.7143 41.1848C62.6385 40.9778 62.2483 40.0156 61.1428 39.4569C60.4492 39.1155 59.8097 39.0844 59.4954 39.0844Z" fill="#00806F"/>
<path d="M87.3799 39.0813C83.5324 39.0709 80.6604 39.0709 79.5982 39.0813C79.2948 39.0813 78.6228 39.0916 77.7558 39.1227C77.2031 39.1434 76.9104 39.1537 76.6286 39.1744C75.4907 39.2675 74.6019 39.5469 74.0817 39.7228C72.4235 40.2608 71.2964 41.0161 71.0579 41.1816C69.5515 42.2162 68.6953 43.3543 68.4243 43.7268C67.2863 45.3201 66.9395 46.81 66.7336 47.7619C66.5385 48.662 66.376 49.8519 66.4735 51.2383C66.5602 52.4902 66.8311 53.4524 66.972 53.9283C67.4814 55.5838 68.2292 56.7012 68.4135 56.9702C69.519 58.5946 70.8195 59.5671 71.5456 60.0534C72.9329 60.9742 74.2118 61.3777 74.8404 61.5536C76.1409 61.9157 77.2681 61.9882 78.0701 61.9778C82.3619 61.9468 85.0389 61.8537 86.6646 61.9778C86.7946 61.9882 87.2823 62.0296 87.9109 61.9468C88.2361 61.9054 88.5612 61.864 88.9514 61.7088C89.1139 61.6467 89.7642 61.3777 90.2953 60.7259C90.783 60.1258 90.913 59.5361 90.9455 59.3912C91.0648 58.8015 90.9672 58.3255 90.9022 58.0669C90.848 57.8082 90.7396 57.3737 90.4037 56.8977C89.8401 56.1114 89.0381 55.8321 88.7454 55.7286C88.3336 55.5838 87.9651 55.5424 87.7267 55.532C84.6162 55.5217 81.5165 55.5113 78.4061 55.501C78.2543 55.5113 78.0376 55.5217 77.7991 55.5113C77.7124 55.5113 77.2139 55.4906 76.7262 55.3665C75.8266 55.1492 75.1764 54.6319 74.9921 54.487C74.0817 53.7628 73.7024 52.904 73.5507 52.5419C73.1388 51.5694 73.1497 50.7417 73.1605 50.3588C73.1713 49.8829 73.2038 48.8172 73.8975 47.7102C74.1142 47.3687 74.5478 46.6652 75.4256 46.1479C76.0759 45.765 76.7045 45.6305 76.9538 45.5788C77.3331 45.5064 77.6691 45.4753 77.9184 45.4753C81.0397 45.465 84.1502 45.4547 87.2715 45.4443C87.3799 45.4547 87.5424 45.4547 87.7375 45.4443C87.8893 45.434 88.4962 45.4029 89.0489 45.1753C90.0677 44.7614 90.5554 43.851 90.6638 43.644C91.0864 42.8163 91.0106 42.061 90.9889 41.8852C90.848 40.7574 90.1219 40.0849 89.9159 39.909C89.1573 39.2365 88.3119 39.0916 88.1494 39.0709C87.8351 39.0606 87.5641 39.0709 87.3799 39.0813Z" fill="#00806F"/>
<path d="M78.1989 53.0076C79.6295 53.0076 80.7892 51.9005 80.7892 50.5348C80.7892 49.1691 79.6295 48.062 78.1989 48.062C76.7684 48.062 75.6086 49.1691 75.6086 50.5348C75.6086 51.9005 76.7684 53.0076 78.1989 53.0076Z" fill="#00806F"/>
<path d="M85.8078 53.0076C87.2384 53.0076 88.3981 51.9005 88.3981 50.5348C88.3981 49.1691 87.2384 48.062 85.8078 48.062C84.3772 48.062 83.2175 49.1691 83.2175 50.5348C83.2175 51.9005 84.3772 53.0076 85.8078 53.0076Z" fill="#00806F"/>
</g>
<defs>
<clipPath id="clip0_704_13760">
<rect width="82" height="23" fill="white" transform="translate(9 39)"/>
</clipPath>
</defs>
</svg>
