<svg width="100" height="52" viewBox="0 0 100 52" fill="none" xmlns="http://www.w3.org/2000/svg">
<g clip-path="url(#clip0_704_13769)">
<path d="M30.4488 15.1346C28.4654 14.9276 26.1028 15.0725 25.9185 15.0828C24.4229 15.1759 23.1982 15.1449 20.7488 15.1035C19.5133 15.0725 18.2778 15.1242 17.0422 15.0932C16.8146 15.0932 16.3486 15.0828 15.7417 15.1449C14.7879 15.2484 14.0943 15.476 13.8776 15.5484C13.4332 15.6933 12.512 16.014 11.5474 16.7589C10.7887 17.3383 10.3552 17.9177 10.2468 18.0729C9.6074 18.9524 9.36896 19.749 9.24974 20.1629C8.94628 21.2493 8.98963 22.1391 9.02215 22.5943C9.05466 23.0909 9.11969 23.9704 9.56405 25.005C10.171 26.4121 11.103 27.2502 11.4065 27.5088C11.6016 27.6744 12.3602 28.2952 13.5524 28.7504C14.7879 29.216 15.8501 29.2677 16.457 29.2884C20.001 29.4126 23.8268 29.3298 24.6938 29.3091C25.3224 29.3091 25.9619 29.3194 26.5905 29.3194C26.688 29.3194 26.8398 29.3194 27.0132 29.3401C27.2408 29.3712 27.4358 29.3919 27.6309 29.5264C27.6851 29.5574 27.826 29.6609 27.9344 29.8471C28.0319 30.023 28.0211 30.1885 28.0211 30.4679C28.0103 30.6541 28.0103 30.7576 27.9561 30.9024C27.9236 30.9749 27.8585 31.1404 27.696 31.2853C27.5659 31.3991 27.4358 31.4301 27.2841 31.4818C27.1649 31.5232 26.9915 31.5646 26.7747 31.5646C22.1469 31.5543 17.5299 31.5543 12.9021 31.5543C12.8046 31.5543 12.6854 31.5543 12.5336 31.5646C12.111 31.5957 11.8075 31.6784 11.7208 31.6991C11.3415 31.8026 11.0814 31.9474 10.9947 31.9888C10.9188 32.0302 10.637 32.1957 10.3227 32.4854C10.1818 32.6199 9.95421 32.8269 9.74829 33.1683C9.6941 33.2511 9.4665 33.6442 9.36896 34.2029C9.33645 34.3581 9.27142 34.8341 9.40148 35.4238C9.54237 36.0549 9.83499 36.4791 9.9217 36.6033C10.3877 37.2448 10.973 37.5448 11.1572 37.6379C11.7533 37.9173 12.2952 37.9587 12.5987 37.969C17.324 37.969 22.0494 37.969 26.7747 37.969C26.9048 37.969 27.0999 37.969 27.3275 37.9587C28.498 37.8966 29.365 37.6276 29.5601 37.5655C30.037 37.4207 30.9907 37.1103 31.9769 36.3239C32.2696 36.086 33.0607 35.4135 33.6893 34.2961C34.3505 33.1062 34.448 32.0405 34.513 31.337C34.6539 29.7954 34.3396 28.6262 34.2638 28.3779C34.0578 27.6433 33.7544 26.5673 32.7898 25.5844C32.0745 24.8602 31.305 24.498 30.8281 24.2808C29.8635 23.8359 29.0399 23.691 28.4655 23.5979C27.5767 23.453 26.8181 23.4324 26.2653 23.453C23.1982 23.453 20.1419 23.4427 17.0748 23.4427C16.988 23.453 16.9013 23.453 16.793 23.453C16.6737 23.453 16.5437 23.4427 16.4028 23.4013C16.3269 23.3806 16.121 23.3185 15.991 23.1427C15.8826 23.0082 15.8717 22.8633 15.8501 22.584C15.8392 22.4184 15.8284 22.2632 15.8826 22.077C15.9151 21.9528 15.9584 21.8494 16.056 21.7459C16.186 21.6217 16.3594 21.5907 16.587 21.5493C16.6846 21.5286 16.7713 21.5183 16.9013 21.5183C17.2373 21.5183 22.6671 21.5183 30.102 21.5286C30.167 21.5286 30.2537 21.5286 30.3513 21.5183C30.4488 21.5079 30.7523 21.4872 31.0774 21.3941C31.5543 21.2596 31.9228 21.032 32.107 20.8975C32.6597 20.5043 32.9524 20.0594 33.0607 19.8835C33.2667 19.5421 33.4943 19.0145 33.5051 18.3419C33.5051 18.1247 33.4943 17.4004 33.0174 16.6555C32.6489 16.0761 32.1937 15.7657 32.0528 15.6726C31.4025 15.238 30.7523 15.1656 30.4488 15.1346Z" fill="white"/>
<path d="M59.4954 15.0844C58.8777 15.0637 52.5917 14.9086 49.492 15.0844C49.0151 15.1155 48.3432 15.1672 47.4978 15.3328C45.8504 15.6638 44.6908 16.2019 44.4632 16.3157C42.7074 17.1641 41.6236 18.2504 41.2768 18.6126C39.5861 20.3818 39.0334 22.2545 38.7841 23.1132C38.589 23.8064 37.8845 26.5172 38.8925 29.8177C39.2068 30.842 39.9112 33.0354 42.0138 34.9702C44.9401 37.6602 48.5274 37.9499 49.6329 38.0017C52.7976 38.0017 55.9514 38.0017 59.1161 38.0017C59.257 37.9913 59.4629 37.981 59.7122 37.9499C60.2758 37.8775 60.8177 37.8051 61.3379 37.505C62.0749 37.0912 62.4109 36.429 62.5626 36.129C62.671 35.9117 62.8661 35.5082 62.9202 34.9598C63.0286 33.6458 62.1291 32.694 62.0207 32.5802C61.067 31.5973 59.8097 31.5455 59.5822 31.5455C54.1198 31.5455 51.6054 31.5662 50.8576 31.5973C50.7709 31.5973 50.4241 31.618 49.958 31.5973C49.7738 31.5869 48.9826 31.5559 48.3865 31.3903C47.3244 31.1006 46.6525 30.335 46.349 29.9936C45.2327 28.7106 45.1243 27.2621 45.1026 26.7862C45.081 26.3413 45.0268 25.1515 45.7529 23.8892C45.9588 23.5271 46.4032 22.7821 47.3244 22.2028C48.2998 21.5923 49.2752 21.5095 49.7088 21.5095C55.5829 21.4061 58.0757 21.4268 58.8127 21.5095C58.8994 21.5199 59.2678 21.5613 59.7556 21.5095C60.0157 21.4785 60.6551 21.4061 61.2945 21.044C62.3242 20.4542 62.6818 19.5023 62.736 19.3368C62.8335 19.0781 63.1045 18.1987 62.7143 17.1848C62.6385 16.9778 62.2483 16.0156 61.1428 15.4569C60.4492 15.1155 59.8097 15.0844 59.4954 15.0844Z" fill="white"/>
<path d="M87.3799 15.0814C83.5324 15.0711 80.6604 15.0711 79.5982 15.0814C79.2948 15.0814 78.6228 15.0918 77.7558 15.1228C77.2031 15.1435 76.9104 15.1538 76.6286 15.1745C75.4907 15.2676 74.6019 15.547 74.0817 15.7229C72.4235 16.2609 71.2964 17.0162 71.0579 17.1817C69.5515 18.2164 68.6953 19.3545 68.4243 19.7269C67.2863 21.3203 66.9395 22.8101 66.7336 23.762C66.5385 24.6622 66.376 25.852 66.4735 27.2384C66.5602 28.4903 66.8311 29.4525 66.972 29.9285C67.4814 31.5839 68.2292 32.7013 68.4135 32.9703C69.519 34.5947 70.8195 35.5672 71.5456 36.0535C72.9329 36.9743 74.2118 37.3779 74.8404 37.5537C76.1409 37.9159 77.2681 37.9883 78.0701 37.9779C82.3619 37.9469 85.0389 37.8538 86.6646 37.9779C86.7946 37.9883 87.2823 38.0297 87.9109 37.9469C88.2361 37.9055 88.5612 37.8641 88.9514 37.7089C89.1139 37.6469 89.7642 37.3779 90.2953 36.726C90.783 36.1259 90.913 35.5362 90.9455 35.3913C91.0648 34.8016 90.9672 34.3257 90.9022 34.067C90.848 33.8084 90.7396 33.3738 90.4037 32.8979C89.8401 32.1115 89.0381 31.8322 88.7454 31.7287C88.3336 31.5839 87.9651 31.5425 87.7267 31.5321C84.6162 31.5218 81.5165 31.5115 78.4061 31.5011C78.2543 31.5115 78.0376 31.5218 77.7991 31.5115C77.7124 31.5115 77.2139 31.4908 76.7262 31.3666C75.8266 31.1493 75.1764 30.632 74.9921 30.4872C74.0817 29.7629 73.7024 28.9042 73.5507 28.542C73.1388 27.5695 73.1497 26.7418 73.1605 26.359C73.1713 25.883 73.2038 24.8173 73.8975 23.7103C74.1142 23.3689 74.5478 22.6653 75.4256 22.148C76.0759 21.7652 76.7045 21.6307 76.9538 21.5789C77.3331 21.5065 77.6691 21.4755 77.9184 21.4755C81.0397 21.4651 84.1502 21.4548 87.2715 21.4444C87.3799 21.4548 87.5424 21.4548 87.7375 21.4444C87.8893 21.4341 88.4962 21.403 89.0489 21.1754C90.0677 20.7616 90.5554 19.8511 90.6638 19.6442C91.0864 18.8164 91.0106 18.0612 90.9889 17.8853C90.848 16.7575 90.1219 16.085 89.9159 15.9091C89.1573 15.2366 88.3119 15.0918 88.1494 15.0711C87.8351 15.0607 87.5641 15.0711 87.3799 15.0814Z" fill="white"/>
<path d="M78.1989 29.0076C79.6295 29.0076 80.7892 27.9005 80.7892 26.5348C80.7892 25.1691 79.6295 24.062 78.1989 24.062C76.7684 24.062 75.6086 25.1691 75.6086 26.5348C75.6086 27.9005 76.7684 29.0076 78.1989 29.0076Z" fill="white"/>
<path d="M85.8078 29.0076C87.2384 29.0076 88.3981 27.9005 88.3981 26.5348C88.3981 25.1691 87.2384 24.062 85.8078 24.062C84.3772 24.062 83.2175 25.1691 83.2175 26.5348C83.2175 27.9005 84.3772 29.0076 85.8078 29.0076Z" fill="white"/>
</g>
<defs>
<clipPath id="clip0_704_13769">
<rect width="82" height="23" fill="white" transform="translate(9 15)"/>
</clipPath>
</defs>
</svg>
